PathFileType	4	(X/Y/Z)	RBDS022static.trc
DataRate	CameraRate	NumFrames	NumMarkers	Units	OrigDataRate	OrigDataStartFrame	OrigNumFrames
150.000000	150.000000	4	48	mm	150.000000	93	150
Frame#	Time	L.Ankle			L.Ankle.Medial			L.ASIS			L.GTR			L.Heel.Bottom			L.Heel.Lateral			L.Heel.Top			L.HF			L.Iliac.Crest			L.Knee			L.Knee.Medial			L.MT1			L.MT2			L.MT5			L.PSIS			L.Shank.Bottom.Lateral			L.Shank.Bottom.Medial			L.Shank.Top.Lateral			L.Shank.Top.Medial			L.Thigh.Bottom.Lateral			L.Thigh.Bottom.Medial			L.Thigh.Top.Lateral			L.Thigh.Top.Medial			L.TT			R.Ankle			R.Ankle.Medial			R.ASIS			R.GTR			R.Heel.Bottom			R.Heel.Lateral			R.Heel.Top			R.HF			R.Iliac.Crest			R.Knee			R.Knee.Medial			R.MT1			R.MT2			R.MT5			R.PSIS			R.Shank.Bottom.Lateral			R.Shank.Bottom.Medial			R.Shank.Top.Lateral			R.Shank.Top.Medial			R.Thigh.Bottom.Lateral			R.Thigh.Bottom.Medial			R.Thigh.Top.Lateral			R.Thigh.Top.Medial			R.TT			
		X1	Y1	Z1	X2	Y2	Z2	X3	Y3	Z3	X4	Y4	Z4	X5	Y5	Z5	X6	Y6	Z6	X7	Y7	Z7	X8	Y8	Z8	X9	Y9	Z9	X10	Y10	Z10	X11	Y11	Z11	X12	Y12	Z12	X13	Y13	Z13	X14	Y14	Z14	X15	Y15	Z15	X16	Y16	Z16	X17	Y17	Z17	X18	Y18	Z18	X19	Y19	Z19	X20	Y20	Z20	X21	Y21	Z21	X22	Y22	Z22	X23	Y23	Z23	X24	Y24	Z24	X25	Y25	Z25	X26	Y26	Z26	X27	Y27	Z27	X28	Y28	Z28	X29	Y29	Z29	X30	Y30	Z30	X31	Y31	Z31	X32	Y32	Z32	X33	Y33	Z33	X34	Y34	Z34	X35	Y35	Z35	X36	Y36	Z36	X37	Y37	Z37	X38	Y38	Z38	X39	Y39	Z39	X40	Y40	Z40	X41	Y41	Z41	X42	Y42	Z42	X43	Y43	Z43	X44	Y44	Z44	X45	Y45	Z45	X46	Y46	Z46	X47	Y47	Z47	X48	Y48	Z48	

94	0.62	707.4532470703125	106.5279388427734	1036.197265625	725.9535522460938	126.5594329833984	1120.888793945313	844.6121215820313	1006.008605957031	1098.434936523438	764.8869018554688	903.2593383789063	1034.578125	636.0313110351563	38.47241592407227	1086.998168945313	666.4017944335938	60.87294387817383	1041.630493164063	643.7731323242188	84.04929351806641	1088.233642578125	740.3685302734375	471.648193359375	1039.635009765625	758.6092529296875	1076.88525390625	1049.36376953125	746.6349487304688	540.4380493164063	1043.606567382813	744.12841796875	519.745849609375	1168.372436523438	854.3479614257813	57.88818359375	1123.189575195313	861.6210327148438	68.01192474365234	1076.377319335938	821.2791137695313	47.0461311340332	1010.184936523438	670.9603271484375	1030.217651367188	1171.880004882813	696.1307373046875	190.7440185546875	1030.036376953125	658.2022094726563	192.3219757080078	1070.208374023438	689.5072631835938	270.4303588867188	1020.959350585938	652.55810546875	272.9613952636719	1060.077880859375	744.9132690429688	646.1260986328125	1031.003784179688	686.3177490234375	654.5443115234375	1074.162475585938	749.2595825195313	755.0673217773438	1018.344482421875	695.487548828125	762.6157836914063	1062.132202148438	790.7981567382813	446.836669921875	1091.233032226563	700.9563598632813	108.3039245605469	1414.735595703125	725.039794921875	128.7530364990234	1330.708129882813	836.35986328125	1006.561096191406	1336.805541992188	765.6566772460938	908.5697631835938	1393.467895507813	631.3156127929688	40.02705001831055	1367.375	663.1278076171875	60.56003189086914	1411.370483398438	638.9427490234375	83.49729919433594	1366.9609375	750.3118286132813	473.8330688476563	1400.369262695313	767.4852905273438	1074.185180664063	1376.970092773438	757.3329467773438	535.9502563476563	1395.68359375	755.7429809570313	519.948486328125	1271.628051757813	840.6830444335938	56.18600082397461	1320.009643554688	857.8583984375	71.149169921875	1374.00244140625	823.5870971679688	49.1550178527832	1435.56103515625	672.6787719726563	1030.787231445313	1257.092895507813	687.0457153320313	187.9282989501953	1416.52001953125	655.6638793945313	195.1471862792969	1376.737060546875	693.64697265625	272.2508850097656	1425.910522460938	657.7468872070313	275.6141357421875	1386.077880859375	757.0494995117188	636.5098266601563	1406.3828125	697.1973266601563	641.1909790039063	1366.922607421875	760.0645141601563	746.9249877929688	1413.444213867188	701.5291137695313	750.6405639648438	1377.94189453125	799.2518920898438	449.255615234375	1357.944580078125	
95	0.6266666666666667	707.4485473632813	106.5348968505859	1036.1953125	725.9281616210938	126.5795745849609	1120.881469726563	844.5944213867188	1006.008117675781	1098.4267578125	764.8641357421875	903.2494506835938	1034.568725585938	636.031494140625	38.47602081298828	1086.997924804688	666.404296875	60.86611557006836	1041.644165039063	643.7817993164063	84.05139923095703	1088.2333984375	740.3782348632813	471.6545715332031	1039.625732421875	758.5755004882813	1076.886596679688	1049.3740234375	746.6304321289063	540.43896484375	1043.60693359375	744.1303100585938	519.7587890625	1168.376342773438	854.3442993164063	57.88595581054688	1123.185180664063	861.6195068359375	68.00930023193359	1076.379638671875	821.28955078125	47.04546356201172	1010.192321777344	670.9494018554688	1030.217529296875	1171.883178710938	696.1282348632813	190.7416687011719	1030.0400390625	658.2076416015625	192.3202514648438	1070.215209960938	689.5034790039063	270.4286804199219	1020.969360351563	652.560791015625	272.9622192382813	1060.086547851563	744.8921508789063	646.0955810546875	1030.988525390625	686.3035278320313	654.539306640625	1074.174072265625	749.2424926757813	755.0673828125	1018.34521484375	695.479736328125	762.6119995117188	1062.138916015625	790.8194580078125	446.8392944335938	1091.21533203125	700.9610595703125	108.3044967651367	1414.7353515625	725.0374145507813	128.7596282958984	1330.707397460938	836.3694458007813	1006.556213378906	1336.778686523438	765.6669311523438	908.5670776367188	1393.475708007813	631.3130493164063	40.02619552612305	1367.369873046875	663.1304321289063	60.55611801147461	1411.377563476563	638.9464721679688	83.49983978271484	1366.940063476563	750.3230590820313	473.8430480957031	1400.375366210938	767.5142211914063	1074.181030273438	1376.96240234375	757.341796875	535.9515380859375	1395.66943359375	755.7222290039063	519.9483032226563	1271.6201171875	840.68603515625	56.18159866333008	1320.011352539063	857.8593139648438	71.14165496826172	1374.004028320313	823.5746459960938	49.15480041503906	1435.561157226563	672.6703491210938	1030.78515625	1257.101806640625	687.0571899414063	187.9241943359375	1416.51611328125	655.6649780273438	195.1511840820313	1376.743896484375	693.576171875	272.2044677734375	1425.68408203125	657.752685546875	275.6130065917969	1386.086059570313	757.059326171875	636.5060424804688	1406.379638671875	697.2088012695313	641.193115234375	1366.9208984375	760.0814819335938	746.9236450195313	1413.434204101563	701.5419311523438	750.6333618164063	1377.940795898438	799.260986328125	449.2644348144531	1357.921142578125	
96	0.6333333333333334	707.4542236328125	106.5288238525391	1036.196655273438	725.9581298828125	126.5598754882813	1120.898681640625	844.57763671875	1006.012268066406	1098.420288085938	764.8447265625	903.263427734375	1034.573974609375	636.0321655273438	38.47058486938477	1087.00732421875	666.405029296875	60.86320877075195	1041.649658203125	643.7709350585938	84.05097961425781	1088.230834960938	740.3697509765625	471.6507568359375	1039.620727539063	758.5318603515625	1076.898193359375	1049.370849609375	746.6314697265625	540.435791015625	1043.612426757813	744.1228637695313	519.7645874023438	1168.384765625	854.349365234375	57.88762664794922	1123.196533203125	861.6259155273438	68.00572204589844	1076.384765625	821.281494140625	47.04813003540039	1010.193664550781	670.9458618164063	1030.2177734375	1171.899291992188	696.130126953125	190.7397155761719	1030.040649414063	658.212890625	192.3142700195313	1070.227416992188	689.5067749023438	270.4291687011719	1020.98876953125	652.5662841796875	272.9586486816406	1060.0927734375	744.880859375	646.0997924804688	1031.001342773438	686.3050537109375	654.5402221679688	1074.18017578125	749.2232666015625	755.0792236328125	1018.346252441406	695.4620971679688	762.612548828125	1062.141845703125	790.8059692382813	446.8314819335938	1091.220336914063	700.9506225585938	108.3019790649414	1414.736694335938	725.0537109375	128.7563781738281	1330.701171875	836.364501953125	1006.552429199219	1336.768310546875	765.683349609375	908.5651245117188	1393.474975585938	631.314697265625	40.01731491088867	1367.367797851563	663.1317138671875	60.55564117431641	1411.371215820313	638.947021484375	83.48313903808594	1366.941772460938	750.3284912109375	473.8414611816406	1400.365600585938	767.5347290039063	1074.193237304688	1376.956420898438	757.3424682617188	535.955322265625	1395.66845703125	755.7301025390625	519.9474487304688	1271.616943359375	840.6790771484375	56.17905044555664	1320.005859375	857.861572265625	71.14345550537109	1374.01123046875	823.5790405273438	49.15920257568359	1435.5576171875	672.6663208007813	1030.783081054688	1257.108276367188	687.0562133789063	187.9166564941406	1416.520751953125	655.6728515625	195.1492004394531	1376.741943359375	693.5822143554688	272.2199401855469	1425.699584960938	657.7618408203125	275.6076049804688	1386.078369140625	757.0780639648438	636.5022583007813	1406.36669921875	697.2201538085938	641.1921997070313	1366.911743164063	760.091552734375	746.9166259765625	1413.431640625	701.55419921875	750.6306762695313	1377.932373046875	799.2590942382813	449.2665100097656	1357.930541992188	
97	0.64	707.4580078125	106.5349502563477	1036.20654296875	725.9393310546875	126.5705184936523	1120.897827148438	844.5748901367188	1006.02490234375	1098.396240234375	764.8388061523438	903.2561645507813	1034.563720703125	636.0313110351563	38.46870803833008	1087.01171875	666.4051513671875	60.86638641357422	1041.645874023438	643.7777709960938	84.05464172363281	1088.238159179688	740.3690185546875	471.6488342285156	1039.637939453125	758.4923706054688	1076.9111328125	1049.37841796875	746.6292114257813	540.4327392578125	1043.61474609375	744.13037109375	519.7549438476563	1168.386352539063	854.3458251953125	57.88948440551758	1123.197875976563	861.6358642578125	68.00833892822266	1076.382934570313	821.2755126953125	47.04348754882813	1010.190307617188	670.9371948242188	1030.21142578125	1171.896484375	696.129638671875	190.7403717041016	1030.051025390625	658.2124633789063	192.3191680908203	1070.227172851563	689.5049438476563	270.431640625	1020.975280761719	652.5695190429688	272.9595031738281	1060.113037109375	744.8831176757813	646.1009521484375	1030.999145507813	686.2916870117188	654.5460815429688	1074.186767578125	749.2171630859375	755.0615234375	1018.340759277344	695.4549560546875	762.6087036132813	1062.155151367188	790.7954711914063	446.8297119140625	1091.223388671875	700.9610595703125	108.3106842041016	1414.735229492188	725.0399780273438	128.7487030029297	1330.702514648438	836.3800659179688	1006.5546875	1336.747314453125	765.7006225585938	908.5621948242188	1393.463623046875	631.3175659179688	40.01302719116211	1367.360473632813	663.1290283203125	60.55338668823242	1411.368530273438	638.9447631835938	83.49212646484375	1366.943481445313	750.3255004882813	473.8311157226563	1400.362426757813	767.5639038085938	1074.19287109375	1376.955688476563	757.3445434570313	535.9459228515625	1395.659912109375	755.70263671875	519.95556640625	1271.60791015625	840.6753540039063	56.17953491210938	1320.009643554688	857.8554077148438	71.13738250732422	1374.000732421875	823.5827026367188	49.15973281860352	1435.561157226563	672.6724243164063	1030.778564453125	1257.109008789063	687.061767578125	187.9215698242188	1416.523071289063	655.6771850585938	195.1376037597656	1376.74365234375	693.5838012695313	272.1880187988281	1425.6845703125	657.749755859375	275.6130676269531	1386.085327148438	757.0731811523438	636.4950561523438	1406.353271484375	697.2223510742188	641.1918334960938	1366.902587890625	760.1030883789063	746.9125366210938	1413.435668945313	701.5723876953125	750.62939453125	1377.938720703125	799.2630004882813	449.2680358886719	1357.911743164063	
